<svg version="1.1" viewBox="0 0 270.933 270.933" xmlns="http://www.w3.org/2000/svg" xmlns:inkscape="http://www.inkscape.org/namespaces/inkscape" xmlns:sodipodi="http://sodipodi.sourceforge.net/DTD/sodipodi-0.dtd" xmlns:svg="http://www.w3.org/2000/svg">
  <path d="m256.12 135.47a120.65 120.65 0 0 1-120.65 120.65 120.65 120.65 0 0 1-120.65-120.65 120.65 120.65 0 0 1 120.65-120.65 120.65 120.65 0 0 1 120.65 120.65z"/>
  <path d="m220.13 135.47a84.667 84.667 0 0 1-84.667 84.667 84.667 84.667 0 0 1-84.667-84.667 84.667 84.667 0 0 1 84.667-84.667 84.667 84.667 0 0 1 84.667 84.667z" fill="#d19522"/>
  <path d="M0 117.475h270.933v35.983H0z"/>
  <path d="m26.955 218.53 191.58-191.58 25.444 25.444-191.58 191.58z"/>
  <path d="m52.399 26.955 191.58 191.58-25.444 25.444-191.58-191.58z"/>
  <path d="M117.475 270.933V0h35.983v270.933z"/>
  <path d="M203.2 163.19l-39.442 39.775-56.015.235-39.775-39.442-.235-56.015 39.442-39.775 56.015-.235 39.775 39.442z" fill="#d19522"/>
  <g transform="scale(.97721 1.0233)" aria-label="81">
    <path d="m132.1 127.6q4.4594 1.794 6.9711 5.5358 2.5116 3.7418 2.5116 17.428 0 5.0233-0.46132 8.7138-0.46132 3.6906-1.4865 6.0997-1.9478 4.767-7.5862 7.8424-5.6384 3.0242-15.121 3.0242-9.2264 0-14.608-2.9217-5.3308-2.9217-7.6887-7.6887-2.3579-4.767-2.3579-16.095 0-7.7399 1.0764-13.122 1.1277-5.3821 7.3299-8.8163-3.7418-1.7428-5.7409-5.8434-1.9478-4.1519-1.9478-10.252 0-10.713 5.9459-16.044 5.9459-5.3821 17.786-5.3821 13.686 0 18.914 5.6896 5.2283 5.6896 5.2283 16.249 0 6.7148-1.7428 9.6877-1.6915 2.9217-7.0223 5.8946zm-11.636-17.838q0-4.1519-0.76887-5.5358-0.71761-1.384-2.8192-1.384-1.999 0-2.7679 1.4865-0.71761 1.4352-0.71761 5.4333v6.3047q0 3.6906 0.82013 5.177 0.82012 1.4352 2.7679 1.4352t2.7167-1.384q0.76887-1.384 0.76887-5.8434zm0.41006 34.496q0-4.767-0.9739-6.3047-0.92264-1.589-3.0755-1.589-1.8965 0-2.973 1.5377-0.87138 1.4865-0.87138 6.356v10.764q0 5.3821 0.9739 6.9711 1.0252 1.4865 3.178 1.4865 2.0503 0 2.973-1.5377 0.76886-1.5377 0.76886-7.0736z"/>
    <path d="m180.64 91.673v82.986h-20.708v-44.492q0-9.534-0.46132-11.533-0.46133-1.9991-2.5629-2.973-2.0503-1.0252-9.2264-1.0252h-2.0503v-9.6877q14.916-3.2292 22.81-13.276z"/>
  </g>
</svg>
