<svg xmlns="http://www.w3.org/2000/svg" version="1.1" xmlns:xlink="http://www.w3.org/1999/xlink" xmlns:svgjs="http://svgjs.com/svgjs" width="1024" height="1024"><svg width="1024" height="1024" viewBox="0 0 270.933 270.933" version="1.1" id="SvgjsSvg1012" sodipodi:docname="v81-path-mini-path.svg" inkscape:version="1.1.1 (3bf5ae0d25, 2021-09-20, custom)" xmlns:inkscape="http://www.inkscape.org/namespaces/inkscape" xmlns:sodipodi="http://sodipodi.sourceforge.net/DTD/sodipodi-0.dtd" xmlns="http://www.w3.org/2000/svg" xmlns:svg="http://www.w3.org/2000/svg">
  <defs id="SvgjsDefs1011"></defs>
  <sodipodi:namedview id="SvgjsSodipodi:namedview1010" pagecolor="#ffffff" bordercolor="#666666" borderopacity="1.0" inkscape:pageshadow="2" inkscape:pageopacity="0.0" inkscape:pagecheckerboard="0" showgrid="false" inkscape:zoom="0.60742188" inkscape:cx="512" inkscape:cy="511.17685" inkscape:window-width="1920" inkscape:window-height="995" inkscape:window-x="0" inkscape:window-y="0" inkscape:window-maximized="1" inkscape:current-layer="svg20"></sodipodi:namedview>
  <path id="SvgjsPath1009" d="M 256.117,135.467 A 120.65,120.65 0 0 1 135.467,256.117 120.65,120.65 0 0 1 14.816994,135.467 120.65,120.65 0 0 1 135.467,14.816994 120.65,120.65 0 0 1 256.117,135.467 Z"></path>
  <path id="SvgjsPath1008" style="fill:#d19522" d="M 220.134,135.467 A 84.667,84.667 0 0 1 135.467,220.134 84.667,84.667 0 0 1 50.799995,135.467 84.667,84.667 0 0 1 135.467,50.799995 84.667,84.667 0 0 1 220.134,135.467 Z"></path>
  <path d="M0 117.475h270.933v35.983H0z" id="SvgjsPath1007"></path>
  <path d="M26.955 218.534L218.534 26.955l25.444 25.444L52.399 243.978z" id="SvgjsPath1006"></path>
  <path d="M52.399 26.955l191.579 191.579-25.444 25.444L26.955 52.399z" id="SvgjsPath1005"></path>
  <path d="M117.475 270.933V0h35.983v270.933z" id="SvgjsPath1004"></path>
  <path d="M203.2 163.19l-39.442 39.775-56.015.235-39.775-39.442-.235-56.015 39.442-39.775 56.015-.235 39.775 39.442z" fill="#d19522" id="SvgjsPath1003"></path>
  <g aria-label="81" transform="scale(.9772055 1.0233262)" id="SvgjsG1002" style="font-weight:bold;font-size:104.976px;font-family:'Flip Flop';letter-spacing:0">
    <path d="m 132.10233,127.60433 q 4.45943,1.79402 6.97107,5.53584 2.51163,3.74182 2.51163,17.42766 0,5.02326 -0.46132,8.71382 -0.46132,3.69057 -1.48648,6.09968 -1.9478,4.76698 -7.58615,7.84245 -5.63836,3.02421 -15.12106,3.02421 -9.2264,0 -14.60848,-2.9217 -5.330807,-2.92169 -7.688667,-7.68867 -2.357859,-4.76697 -2.357859,-16.09495 0,-7.73993 1.076414,-13.122 1.127672,-5.38207 7.329862,-8.81634 -3.741815,-1.74277 -5.74087,-5.84339 -1.947797,-4.15189 -1.947797,-10.25157 0,-10.71288 5.945906,-16.043692 5.945911,-5.38207 17.786461,-5.38207 13.68584,0 18.91413,5.689617 5.2283,5.689615 5.2283,16.248725 0,6.71477 -1.74277,9.68773 -1.6915,2.92169 -7.02232,5.89465 z m -11.63552,-17.83772 q 0,-4.15189 -0.76887,-5.53585 -0.71761,-1.38396 -2.81918,-1.38396 -1.99905,0 -2.76792,1.48648 -0.71761,1.43522 -0.71761,5.43333 v 6.30471 q 0,3.69056 0.82013,5.17704 0.82012,1.43522 2.76792,1.43522 1.9478,0 2.71666,-1.38397 0.76887,-1.38396 0.76887,-5.84339 z m 0.41006,34.4965 q 0,-4.76697 -0.9739,-6.30471 -0.92264,-1.58899 -3.07546,-1.58899 -1.89654,0 -2.97296,1.53774 -0.87138,1.48647 -0.87138,6.35596 v 10.76414 q 0,5.38207 0.9739,6.97107 1.02515,1.48647 3.17798,1.48647 2.05031,0 2.97296,-1.53773 0.76886,-1.53774 0.76886,-7.07358 z" id="SvgjsPath1001"></path>
    <path d="m 180.64348,91.6726 v 82.9864 h -20.70815 v -44.49178 q 0,-9.53396 -0.46132,-11.53301 -0.46133,-1.99906 -2.5629,-2.97295 -2.05031,-1.02516 -9.2264,-1.02516 h -2.05031 v -9.68773 q 14.91602,-3.22924 22.80972,-13.27577 z" id="SvgjsPath1000"></path>
  </g>
</svg><style>@media (prefers-color-scheme: light) { :root { filter: none; } }
@media (prefers-color-scheme: dark) { :root { filter: none; } }
</style></svg>